<mxfile host="app.diagrams.net" modified="2024-01-16T06:34:25.128Z" agent="Mozilla/5.0 (Windows NT 10.0; Win64; x64) AppleWebKit/537.36 (KHTML, like Gecko) Chrome/120.0.0.0 Safari/537.36" etag="aUQN8YRmMwygdWO2XB7A" version="22.1.18" type="github">
  <diagram name="Page-1" id="IVi37I3aK0WylxZDK_SZ">
    <mxGraphModel dx="880" dy="434" grid="1" gridSize="10" guides="1" tooltips="1" connect="1" arrows="1" fold="1" page="1" pageScale="1" pageWidth="850" pageHeight="1100" math="0" shadow="0">
      <root>
        <mxCell id="0" />
        <mxCell id="1" parent="0" />
        <mxCell id="pUlCks9OsAvWHs1VP2Rb-1" style="edgeStyle=orthogonalEdgeStyle;rounded=0;orthogonalLoop=1;jettySize=auto;html=1;exitX=1;exitY=0.5;exitDx=0;exitDy=0;entryX=0.5;entryY=0;entryDx=0;entryDy=0;curved=1;" edge="1" parent="1" source="pUlCks9OsAvWHs1VP2Rb-2" target="pUlCks9OsAvWHs1VP2Rb-5">
          <mxGeometry relative="1" as="geometry" />
        </mxCell>
        <mxCell id="pUlCks9OsAvWHs1VP2Rb-2" value="" style="ellipse;whiteSpace=wrap;html=1;" vertex="1" parent="1">
          <mxGeometry x="320" y="80" width="120" height="80" as="geometry" />
        </mxCell>
        <mxCell id="pUlCks9OsAvWHs1VP2Rb-3" value="Global Warming" style="text;html=1;strokeColor=none;fillColor=none;align=center;verticalAlign=middle;whiteSpace=wrap;rounded=0;" vertex="1" parent="1">
          <mxGeometry x="335" y="92.5" width="90" height="55" as="geometry" />
        </mxCell>
        <mxCell id="pUlCks9OsAvWHs1VP2Rb-4" style="edgeStyle=orthogonalEdgeStyle;rounded=0;orthogonalLoop=1;jettySize=auto;html=1;entryX=1;entryY=0.5;entryDx=0;entryDy=0;curved=1;" edge="1" parent="1" source="pUlCks9OsAvWHs1VP2Rb-5" target="pUlCks9OsAvWHs1VP2Rb-9">
          <mxGeometry relative="1" as="geometry">
            <Array as="points">
              <mxPoint x="540" y="360" />
            </Array>
          </mxGeometry>
        </mxCell>
        <mxCell id="pUlCks9OsAvWHs1VP2Rb-5" value="" style="ellipse;whiteSpace=wrap;html=1;" vertex="1" parent="1">
          <mxGeometry x="480" y="200" width="120" height="80" as="geometry" />
        </mxCell>
        <mxCell id="pUlCks9OsAvWHs1VP2Rb-6" style="edgeStyle=orthogonalEdgeStyle;rounded=0;orthogonalLoop=1;jettySize=auto;html=1;entryX=0;entryY=0.5;entryDx=0;entryDy=0;curved=1;" edge="1" parent="1" source="pUlCks9OsAvWHs1VP2Rb-7" target="pUlCks9OsAvWHs1VP2Rb-2">
          <mxGeometry relative="1" as="geometry">
            <Array as="points">
              <mxPoint x="220" y="120" />
            </Array>
          </mxGeometry>
        </mxCell>
        <mxCell id="pUlCks9OsAvWHs1VP2Rb-7" value="" style="ellipse;whiteSpace=wrap;html=1;" vertex="1" parent="1">
          <mxGeometry x="160" y="200" width="120" height="80" as="geometry" />
        </mxCell>
        <mxCell id="pUlCks9OsAvWHs1VP2Rb-8" style="edgeStyle=orthogonalEdgeStyle;rounded=0;orthogonalLoop=1;jettySize=auto;html=1;entryX=0.5;entryY=1;entryDx=0;entryDy=0;curved=1;" edge="1" parent="1" source="pUlCks9OsAvWHs1VP2Rb-9" target="pUlCks9OsAvWHs1VP2Rb-7">
          <mxGeometry relative="1" as="geometry" />
        </mxCell>
        <mxCell id="pUlCks9OsAvWHs1VP2Rb-9" value="" style="ellipse;whiteSpace=wrap;html=1;" vertex="1" parent="1">
          <mxGeometry x="320" y="320" width="120" height="80" as="geometry" />
        </mxCell>
        <mxCell id="pUlCks9OsAvWHs1VP2Rb-10" value="" style="shape=mxgraph.signs.healthcare.first_aid;html=1;pointerEvents=1;fillColor=#000000;strokeColor=none;verticalLabelPosition=bottom;verticalAlign=top;align=center;" vertex="1" parent="1">
          <mxGeometry x="510" y="110.5" width="20" height="19" as="geometry" />
        </mxCell>
        <mxCell id="pUlCks9OsAvWHs1VP2Rb-11" style="edgeStyle=orthogonalEdgeStyle;rounded=0;orthogonalLoop=1;jettySize=auto;html=1;exitX=0.5;exitY=0;exitDx=0;exitDy=0;exitPerimeter=0;entryX=0.5;entryY=0.5;entryDx=0;entryDy=0;entryPerimeter=0;" edge="1" parent="1" source="pUlCks9OsAvWHs1VP2Rb-10" target="pUlCks9OsAvWHs1VP2Rb-10">
          <mxGeometry relative="1" as="geometry" />
        </mxCell>
        <mxCell id="pUlCks9OsAvWHs1VP2Rb-12" value="" style="shape=mxgraph.signs.healthcare.first_aid;html=1;pointerEvents=1;fillColor=#000000;strokeColor=none;verticalLabelPosition=bottom;verticalAlign=top;align=center;" vertex="1" parent="1">
          <mxGeometry x="230" y="350" width="20" height="19" as="geometry" />
        </mxCell>
        <mxCell id="pUlCks9OsAvWHs1VP2Rb-14" value="" style="shape=mxgraph.signs.healthcare.first_aid;html=1;pointerEvents=1;fillColor=#000000;strokeColor=none;verticalLabelPosition=bottom;verticalAlign=top;align=center;" vertex="1" parent="1">
          <mxGeometry x="510" y="353" width="20" height="19" as="geometry" />
        </mxCell>
        <mxCell id="pUlCks9OsAvWHs1VP2Rb-15" value="Global Temperature" style="text;html=1;strokeColor=none;fillColor=none;align=center;verticalAlign=middle;whiteSpace=wrap;rounded=0;" vertex="1" parent="1">
          <mxGeometry x="495" y="212.5" width="90" height="55" as="geometry" />
        </mxCell>
        <mxCell id="pUlCks9OsAvWHs1VP2Rb-16" value="Hurricane Activity" style="text;html=1;strokeColor=none;fillColor=none;align=center;verticalAlign=middle;whiteSpace=wrap;rounded=0;" vertex="1" parent="1">
          <mxGeometry x="335" y="335" width="90" height="55" as="geometry" />
        </mxCell>
        <mxCell id="pUlCks9OsAvWHs1VP2Rb-17" value="Media Coverage&lt;br&gt;and&lt;br&gt;Public Awareness" style="text;html=1;strokeColor=none;fillColor=none;align=center;verticalAlign=middle;whiteSpace=wrap;rounded=0;" vertex="1" parent="1">
          <mxGeometry x="167.5" y="212.5" width="105" height="55" as="geometry" />
        </mxCell>
        <mxCell id="pUlCks9OsAvWHs1VP2Rb-18" value="Increase of Global Temperature due to Global Warming" style="text;html=1;strokeColor=none;fillColor=none;align=center;verticalAlign=middle;whiteSpace=wrap;rounded=0;" vertex="1" parent="1">
          <mxGeometry x="550" y="99.5" width="60" height="30" as="geometry" />
        </mxCell>
        <mxCell id="pUlCks9OsAvWHs1VP2Rb-19" value="Increase in Hurricane Activities due to abnormal Sea temprature" style="text;html=1;strokeColor=none;fillColor=none;align=center;verticalAlign=middle;whiteSpace=wrap;rounded=0;" vertex="1" parent="1">
          <mxGeometry x="550" y="350" width="60" height="30" as="geometry" />
        </mxCell>
        <mxCell id="pUlCks9OsAvWHs1VP2Rb-20" value="Because if extreme weather event, there is a greater awareness among the Public and Media about the connection between hurricane intensity and climate change." style="text;html=1;strokeColor=none;fillColor=none;align=center;verticalAlign=middle;whiteSpace=wrap;rounded=0;" vertex="1" parent="1">
          <mxGeometry x="120" y="353" width="110" height="30" as="geometry" />
        </mxCell>
        <mxCell id="pUlCks9OsAvWHs1VP2Rb-21" value="Decrease in Global Warming due to Public Awareness about the problem" style="text;html=1;strokeColor=none;fillColor=none;align=center;verticalAlign=middle;whiteSpace=wrap;rounded=0;" vertex="1" parent="1">
          <mxGeometry x="140" y="110.5" width="80" height="30" as="geometry" />
        </mxCell>
        <mxCell id="pUlCks9OsAvWHs1VP2Rb-22" value="B" style="text;html=1;strokeColor=none;fillColor=none;align=center;verticalAlign=middle;whiteSpace=wrap;rounded=0;fontSize=31;" vertex="1" parent="1">
          <mxGeometry x="350" y="225" width="60" height="30" as="geometry" />
        </mxCell>
        <mxCell id="pUlCks9OsAvWHs1VP2Rb-30" value="&lt;font style=&quot;font-size: 60px;&quot;&gt;-&lt;/font&gt;" style="text;html=1;strokeColor=none;fillColor=none;align=center;verticalAlign=middle;whiteSpace=wrap;rounded=0;" vertex="1" parent="1">
          <mxGeometry x="211" y="99.5" width="60" height="30" as="geometry" />
        </mxCell>
      </root>
    </mxGraphModel>
  </diagram>
</mxfile>
